<?xml version="1.0" encoding="UTF-8" standalone="no"?>
<!DOCTYPE svg PUBLIC "-//W3C//DTD SVG 1.1//EN" "http://www.w3.org/Graphics/SVG/1.1/DTD/svg11.dtd">
<svg version="1.1" xmlns="http://www.w3.org/2000/svg" xmlns:xlink="http://www.w3.org/1999/xlink" preserveAspectRatio="xMidYMid meet" viewBox="-1.0035878349520715 -1 334.4727032718662 143.22297932572724" width="330.47" height="139.22">
    <g class="primary" fill="#29aae1">
        <path d="M8.04 20.75C3.6 20.75 0 17.15 0 12.71C0 12.25 0 8.51 0 8.04C0 3.6 3.6 0 8.04 0C9.63 0 22.34 0 23.93 0C32.91 0 36.64 3.93 36.64 12.71C36.64 15.47 36.64 29.24 36.64 54.03C42.25 54.03 45.37 54.03 45.99 54.03C50.85 54.03 54.41 53.66 56.65 49.73C58.99 45.38 77.71 10.55 80.05 6.2C82.1 2.38 86.09 0 90.42 0C99.37 0 105.05 9.59 100.75 17.44C98.72 21.15 82.43 50.88 80.39 54.59C76.28 62.07 71.98 64.32 71.98 64.32C71.98 64.35 71.98 64.65 71.98 64.69C71.98 64.69 76.47 65.81 80.58 73.85C82.26 77.23 95.72 104.3 97.41 107.69C99.28 111.61 102.45 111.99 106.76 111.99C109.22 111.99 128.96 111.99 131.43 111.99C137.16 111.99 141.81 116.64 141.81 122.37C141.81 128.1 137.16 132.74 131.43 132.74C127.92 132.74 99.8 132.74 96.28 132.74C86.38 132.74 82.08 131.43 77.78 122.83C75.61 118.48 58.26 83.63 56.09 79.27C53.85 74.97 49.73 74.78 44.5 74.78C43.97 74.78 41.36 74.78 36.64 74.78C36.64 102.21 36.64 117.45 36.64 120.5C36.64 127.26 31.16 132.74 24.4 132.74C17.64 132.74 12.15 127.26 12.15 120.5C12.15 114.12 12.15 82.24 12.15 24.87C10.93 22.12 9.55 20.75 8.04 20.75Z" id="letter_k"/>
        <path d="M311.66 53.81C311.66 55.51 311.66 69.16 311.66 70.87C311.66 77.06 306.43 82.29 300.24 82.29C294.05 82.29 288.81 77.06 288.81 70.87C288.81 67.1 288.81 36.93 288.81 33.15C288.81 18.26 276.54 6.14 261.44 6.14C246.55 6.14 234.43 18.26 234.43 33.15C234.43 40.7 234.43 101.04 234.43 108.59C234.43 114.78 229.2 120.01 223.01 120.01C216.82 120.01 211.59 114.78 211.59 108.59C211.59 102.93 211.59 57.67 211.59 52.01C211.59 37.12 199.47 25 184.57 25C169.68 25 157.56 37.12 157.56 52.01C157.56 53.88 157.56 68.82 157.56 70.69C157.56 74.99 161.06 78.49 165.36 78.49C169.53 78.49 172.95 75.2 173.32 70.85C173.32 68.97 173.33 53.9 173.33 52.01C173.33 45.82 178.56 40.59 184.75 40.59C190.94 40.59 196.17 45.82 196.17 52.01C196.17 57.69 196.17 103.09 196.17 108.77C196.17 123.66 208.29 135.78 223.19 135.78C238.08 135.78 250.2 123.58 250.2 108.59C250.2 101.04 250.2 40.7 250.2 33.15C250.2 26.96 255.43 21.73 261.62 21.73C267.81 21.73 273.04 26.96 273.04 33.15C273.04 36.93 273.04 67.1 273.04 70.87C273.04 85.77 285.24 97.88 300.24 97.88C315.13 97.88 327.25 85.77 327.25 70.87C327.25 69.16 327.25 55.51 327.25 53.81C327.25 49.44 323.83 46.01 319.45 46.01C315.08 46.01 311.66 49.44 311.66 53.81Z" id="wave_inner"/>
        <path d="M300.24 94.66C287.02 94.66 276.26 83.99 276.26 70.87C276.26 67.1 276.26 36.93 276.26 33.15C276.26 25.22 269.56 18.51 261.62 18.51C253.69 18.51 246.98 25.22 246.98 33.15C246.98 40.7 246.98 101.04 246.98 108.59C246.98 121.81 236.31 132.56 223.19 132.56C210.07 132.56 199.39 121.89 199.39 108.77C199.39 103.09 199.39 57.69 199.39 52.01C199.39 44.08 192.69 37.37 184.75 37.37C176.82 37.37 170.11 44.08 170.11 52.01C170.11 53.88 170.1 68.83 170.1 70.7C169.83 73.31 167.8 75.27 165.36 75.27C162.83 75.27 160.78 73.21 160.78 70.69C160.78 68.82 160.78 53.88 160.78 52.01C160.78 38.89 171.45 28.22 184.57 28.22C197.69 28.22 208.37 38.89 208.37 52.01C208.37 57.67 208.37 102.93 208.37 108.59C208.37 116.52 215.07 123.23 223.01 123.23C230.94 123.23 237.65 116.52 237.65 108.59C237.65 101.04 237.65 40.7 237.65 33.15C237.65 20.03 248.32 9.36 261.44 9.36C274.76 9.36 285.59 20.03 285.59 33.15C285.59 36.93 285.59 67.1 285.59 70.87C285.59 78.81 292.3 85.51 300.24 85.51C308.17 85.51 314.88 78.81 314.88 70.87C314.88 69.16 314.88 55.52 314.88 53.81C314.88 51.2 316.84 49.23 319.45 49.23C322.06 49.23 324.03 51.2 324.03 53.81C324.03 54.95 324.03 60.63 324.03 70.87C316.91 86.73 308.98 94.66 300.24 94.66ZM308.44 53.81C308.44 55.52 308.44 69.16 308.44 70.87C308.44 75.32 304.68 79.07 300.24 79.07C295.79 79.07 292.03 75.32 292.03 70.87C292.03 67.1 292.03 36.93 292.03 33.15C292.03 16.48 278.31 2.92 261.44 2.92C244.77 2.92 231.21 16.48 231.21 33.15C231.21 40.7 231.21 101.04 231.21 108.59C231.21 113.03 227.45 116.79 223.01 116.79C218.56 116.79 214.81 113.03 214.81 108.59C214.81 102.93 214.81 57.67 214.81 52.01C214.81 35.34 201.24 21.78 184.57 21.78C167.9 21.78 154.34 35.34 154.34 52.01C154.34 53.88 154.34 68.82 154.34 70.69C154.34 76.77 159.28 81.71 165.36 81.71C171.22 81.71 176.02 77.15 176.53 71.12C176.53 69.21 176.55 53.92 176.55 52.01C176.55 47.57 180.31 43.81 184.75 43.81C189.2 43.81 192.95 47.57 192.95 52.01C192.95 57.69 192.95 103.09 192.95 108.77C192.95 125.44 206.52 139 223.19 139C239.86 139 253.42 125.36 253.42 108.59C253.42 101.04 253.42 40.7 253.42 33.15C253.42 28.71 257.18 24.95 261.62 24.95C266.07 24.95 269.82 28.71 269.82 33.15C269.82 36.93 269.82 67.1 269.82 70.87C269.82 87.54 283.47 101.11 300.24 101.11C316.91 101.11 330.47 87.54 330.47 70.87C330.47 69.16 330.47 55.52 330.47 53.81C330.47 47.63 325.63 42.79 319.45 42.79C313.28 42.79 308.44 47.63 308.44 53.81Z" id="wave_outer"/>
    </g>
    <g class="secondary" fill="#414042">
        <path d="M144.45 0L144.45 21.87L123.89 21.87L123.89 0L144.45 0ZM118.65 57.58C117.54 57.58 108.61 57.58 107.49 57.58C101.92 57.58 97.4 53.06 97.4 47.49C97.4 41.91 101.92 37.39 107.49 37.39C110.12 37.39 131.17 37.39 133.8 37.39C140.71 37.39 146.32 43 146.32 49.92C146.32 55.79 146.32 102.75 146.32 108.62C146.32 110.89 148.16 112.74 150.43 112.74C152.23 112.74 166.57 112.74 168.36 112.74C173.89 112.74 178.37 117.21 178.37 122.74C178.37 128.26 173.89 132.74 168.36 132.74C165.06 132.74 138.6 132.74 135.29 132.74C126.51 132.74 122.77 129 122.77 120.03C122.77 116.14 122.77 96.7 122.77 61.7C121.77 58.95 120.4 57.58 118.65 57.58Z" id="letter_i"/>
        <path d="M320.62 2.32C323.87 1.04 327.55 2.64 328.83 5.89C329.29 7.06 328.36 4.71 328.83 5.89C330.11 9.14 328.51 12.81 325.26 14.09C260.76 39.49 73.14 113.38 8.64 138.78C5.39 140.06 1.72 138.46 0.44 135.21C-0.03 134.04 0.9 136.39 0.44 135.21C-0.84 131.96 0.76 128.29 4.01 127.01C68.51 101.61 256.12 27.72 320.62 2.32Z" id="strike_through"/>
    </g>
</svg>
