<?xml version="1.0" encoding="UTF-8" standalone="no"?>
<!--Generator: Gravit.io-->
<svg xmlns="http://www.w3.org/2000/svg" xmlns:xlink="http://www.w3.org/1999/xlink" style="isolation:isolate" viewBox="0 0 200 311.227" width="200px" height="311.227px">
    <g class="label" fill="rgb(65,64,66)">
        <path d=" M 115.757 222.393 C 115.757 228.027 111.772 232.246 106.122 232.207 C 100.931 232.172 96.725 227.784 96.642 222.593 C 96.548 216.753 100.527 212.579 106.199 212.579 C 111.807 212.579 115.757 216.659 115.757 222.393 Z  M 116.013 310.462 L 96.386 310.462 L 96.386 241.893 L 116.013 241.893 L 116.013 310.462 Z " id="labelPath3"/>
        <path d=" M 200 241.893 L 200 310.462 L 180.5 310.462 L 180.5 298.354 C 175.785 307.02 167.883 311.227 157.558 311.227 C 142.393 311.227 132.833 301.158 132.833 284.971 L 132.833 241.893 L 152.461 241.893 L 152.461 279.365 C 152.461 288.031 157.431 293.257 165.334 293.257 C 174.765 293.128 180.5 285.736 180.5 275.795 L 180.5 241.893 L 200 241.893 Z " id="labelPath2"/>
        <path d=" M 61.469 310.462 L 35.851 274.138 L 22.979 288.414 L 22.979 310.462 L 2.842 310.462 L 2.842 221.247 L 22.979 221.247 L 22.979 261.776 L 60.066 221.247 L 83.391 221.247 L 49.87 258.461 L 85.684 310.462 L 61.469 310.462 Z " id="labelPath1"/>
    </g>
    <g class="logo" fill="rgb(41,170,225)">
        <path d=" M 120.818 155.642 L 110.411 155.642 L 98.077 130.976 L 85.745 155.642 L 57.785 155.642 L 57.785 62.442 L 67.104 62.442 L 67.104 146.323 L 79.982 146.323 L 98.077 110.146 L 120.818 155.642 Z  M 126.581 53.123 L 116.159 53.123 L 76.424 132.606 L 76.424 53.123 L 21.534 53.123 C 9.641 53.123 0 62.763 0 74.655 L 0 177.174 C 0 189.476 9.971 199.445 22.271 199.445 L 116.99 199.445 C 133.531 199.445 144.3 182.049 136.922 167.243 L 103.281 99.722 L 126.581 53.123 Z " id="logoPath2"/>
        <path d=" M 177.176 0 L 22.271 0 C 9.972 0 0 9.971 0 22.27 C 0 34.162 9.641 43.803 21.533 43.803 L 85.744 43.803 L 85.744 93.121 L 110.41 43.803 L 141.663 43.803 L 113.704 99.722 L 157.243 187.107 C 161.009 194.668 168.73 199.446 177.176 199.446 C 189.476 199.446 199.447 189.475 199.447 177.175 L 199.447 22.27 C 199.447 9.971 189.476 0 177.176 0 Z " id="logoPath1"/>
    </g>
</svg>
