<?xml version="1.0" encoding="UTF-8" standalone="no"?>
<!-- Generator: Gravit.io -->
<svg xmlns="http://www.w3.org/2000/svg" xmlns:xlink="http://www.w3.org/1999/xlink" style="isolation:isolate" viewBox="0 0 343.561 161.969" width="343.561px" height="161.969px"><g id="logo"><path d=" M 98.115 126.397 L 89.663 126.397 L 79.647 106.366 L 69.632 126.397 L 46.926 126.397 L 46.926 50.71 L 54.494 50.71 L 54.494 118.829 L 64.951 118.829 L 79.647 89.45 L 98.115 126.397 Z  M 102.796 43.142 L 94.33 43.142 L 62.063 107.69 L 62.063 43.142 L 17.486 43.142 C 7.829 43.142 0 50.971 0 60.628 L 0 143.883 C 0 153.872 8.097 161.969 18.086 161.969 L 95.007 161.969 C 108.439 161.969 117.184 147.842 111.193 135.818 L 83.873 80.984 L 102.796 43.142 Z " class="logoColor1" id="logoPath2" fill="rgb(41,170,225)"/><path d=" M 143.883 0 L 18.086 0 C 8.098 0 0 8.098 0 18.086 C 0 27.744 7.829 35.573 17.487 35.573 L 69.631 35.573 L 69.631 75.624 L 89.663 35.573 L 115.043 35.573 L 92.338 80.984 L 127.696 151.948 C 130.754 158.088 137.024 161.969 143.883 161.969 C 153.871 161.969 161.969 153.872 161.969 143.883 L 161.969 18.086 C 161.969 8.098 153.871 0 143.883 0 Z " class="logoColor1" id="logoPath1" fill="rgb(41,170,225)"/></g><g id="label"><path d=" M 275.149 52.342 C 275.149 56.917 271.912 60.342 267.325 60.312 C 263.109 60.282 259.692 56.72 259.625 52.504 C 259.549 47.762 262.78 44.372 267.386 44.372 C 271.941 44.372 275.149 47.685 275.149 52.342 Z  M 275.356 123.862 L 259.417 123.862 L 259.417 68.178 L 275.356 68.178 L 275.356 123.862 Z " class="logoColor2" id="labelPath2" fill="rgb(65,64,66)"/><path d=" M 343.561 68.178 L 343.561 123.862 L 327.725 123.862 L 327.725 114.029 C 323.896 121.067 317.479 124.483 309.095 124.483 C 296.779 124.483 289.015 116.306 289.015 103.161 L 289.015 68.178 L 304.955 68.178 L 304.955 98.607 C 304.955 105.646 308.992 109.889 315.41 109.889 C 323.068 109.785 327.725 103.782 327.725 95.709 L 327.725 68.178 L 343.561 68.178 Z " class="logoColor2" id="labelPath3" fill="rgb(65,64,66)"/><path d=" M 231.061 123.861 L 210.257 94.363 L 199.804 105.956 L 199.804 123.861 L 183.451 123.861 L 183.451 51.41 L 199.804 51.41 L 199.804 84.324 L 229.922 51.41 L 248.864 51.41 L 221.642 81.632 L 250.726 123.861 L 231.061 123.861 Z " class="logoColor2" id="labelPath1" fill="rgb(65,64,66)"/></g></svg>