<?xml version="1.0" encoding="UTF-8" standalone="no"?>
<!-- Generator: Gravit.io -->
<svg xmlns="http://www.w3.org/2000/svg" xmlns:xlink="http://www.w3.org/1999/xlink" style="isolation:isolate" viewBox="0 0 331.671 139.73" width="331.671px" height="139.73px"><path d=" M 124.005 0 L 144.678 0 L 144.678 21.989 L 124.005 21.989 L 124.005 0 Z  M 122.877 62.021 C 122.877 59.202 121.374 57.886 118.743 57.886 L 107.523 57.886 C 101.919 57.886 97.376 53.343 97.376 47.737 C 97.376 42.133 101.919 37.59 107.523 37.59 L 133.966 37.59 C 140.92 37.59 146.557 43.226 146.557 50.18 L 146.557 109.194 C 146.557 111.477 148.408 113.328 150.691 113.328 L 168.715 113.328 C 174.269 113.328 178.771 117.83 178.771 123.384 C 178.771 128.936 174.269 133.438 168.715 133.438 L 135.469 133.438 C 126.636 133.438 122.877 129.68 122.877 120.658 L 122.877 62.021 Z " id="pathI" class="logoColor2" fill="rgb(65,64,66)"/><g id="groupColor1"><path d=" M 12.216 24.997 C 12.216 22.714 10.365 20.863 8.082 20.863 C 3.618 20.863 0 17.244 0 12.781 L 0 8.082 C 0 3.619 3.618 0 8.082 0 L 24.056 0 C 33.078 0 36.836 3.948 36.836 12.781 L 36.836 54.316 L 46.234 54.316 C 51.12 54.316 54.692 53.939 56.946 49.994 L 80.47 6.234 C 82.533 2.395 86.539 0 90.898 0 C 99.895 0 105.604 9.639 101.28 17.528 L 80.815 54.88 C 76.679 62.398 72.357 64.653 72.357 64.653 L 72.357 65.027 C 72.357 65.027 76.867 66.156 81.003 74.238 L 97.917 108.254 C 99.797 112.201 102.992 112.578 107.315 112.578 L 132.121 112.578 C 137.881 112.578 142.551 117.248 142.551 123.008 C 142.551 128.768 137.881 133.438 132.121 133.438 L 96.789 133.438 C 86.828 133.438 82.506 132.124 78.184 123.477 L 56.382 79.687 C 54.127 75.365 49.993 75.177 44.731 75.177 L 36.836 75.177 L 36.836 121.128 C 36.836 127.927 31.325 133.438 24.527 133.438 C 17.728 133.438 12.216 127.927 12.216 121.128 L 12.216 24.997 Z " id="pathK" class="logoColor1" fill="rgb(41,170,225)"/><g id="groupWave"><path d=" M 320.598 46.254 C 316.203 46.254 312.761 49.696 312.761 54.091 L 312.761 71.243 C 312.761 77.467 307.503 82.725 301.28 82.725 C 295.056 82.725 289.798 77.467 289.798 71.243 L 289.798 33.328 C 289.798 18.355 277.454 6.173 262.283 6.173 C 247.309 6.173 235.127 18.355 235.127 33.328 L 235.127 109.157 C 235.127 115.381 229.869 120.639 223.646 120.639 C 217.422 120.639 212.164 115.381 212.164 109.157 L 212.164 52.286 C 212.164 37.313 199.983 25.131 185.009 25.131 C 170.036 25.131 157.854 37.313 157.854 52.286 L 157.854 71.063 C 157.854 75.384 161.37 78.9 165.691 78.9 C 169.887 78.9 173.328 75.599 173.696 71.221 L 173.709 52.286 C 173.709 46.063 178.967 40.805 185.19 40.805 C 191.412 40.805 196.67 46.063 196.67 52.286 L 196.67 109.338 C 196.67 124.312 208.852 136.493 223.827 136.493 C 238.8 136.493 250.982 124.231 250.982 109.157 L 250.982 33.328 C 250.982 27.105 256.24 21.847 262.463 21.847 C 268.687 21.847 273.945 27.105 273.945 33.328 L 273.945 71.243 C 273.945 86.217 286.206 98.399 301.28 98.399 C 316.254 98.399 328.435 86.217 328.435 71.243 L 328.435 54.091 C 328.435 49.696 324.994 46.254 320.598 46.254 Z " class="logoColor1
" id="wavePath2" fill="rgb(41,170,225)"/><path d=" M 325.199 71.243 C 325.199 84.431 314.468 95.162 301.28 95.162 C 287.991 95.162 277.179 84.431 277.179 71.243 L 277.179 33.329 C 277.179 25.351 270.439 18.61 262.462 18.61 C 254.485 18.61 247.744 25.351 247.744 33.329 L 247.744 109.158 C 247.744 122.445 237.014 133.257 223.826 133.257 C 210.637 133.257 199.907 122.526 199.907 109.338 L 199.907 52.287 C 199.907 44.309 193.166 37.569 185.189 37.569 C 177.212 37.569 170.473 44.309 170.473 52.283 L 170.459 71.069 C 170.184 73.697 168.152 75.664 165.691 75.664 C 163.153 75.664 161.09 73.599 161.09 71.063 L 161.09 52.287 C 161.09 39.098 171.821 28.368 185.009 28.368 C 198.197 28.368 208.928 39.098 208.928 52.287 L 208.928 109.158 C 208.928 117.136 215.668 123.876 223.645 123.876 C 231.624 123.876 238.363 117.136 238.363 109.158 L 238.363 33.329 C 238.363 20.14 249.095 9.41 262.283 9.41 C 275.67 9.41 286.561 20.14 286.561 33.329 L 286.561 71.243 C 286.561 79.221 293.303 85.961 301.28 85.961 C 309.257 85.961 315.998 79.221 315.998 71.243 L 315.998 54.092 C 315.998 51.468 317.975 49.491 320.598 49.491 C 323.22 49.491 325.199 51.468 325.199 54.092 L 325.199 71.243 Z  M 320.598 43.017 C 314.389 43.017 309.525 47.883 309.525 54.092 L 309.525 71.243 C 309.525 75.713 305.749 79.488 301.28 79.488 C 296.809 79.488 293.035 75.713 293.035 71.243 L 293.035 33.329 C 293.035 16.57 279.239 2.936 262.283 2.936 C 245.524 2.936 231.889 16.57 231.889 33.329 L 231.889 109.158 C 231.889 113.627 228.114 117.402 223.645 117.402 C 219.176 117.402 215.4 113.627 215.4 109.158 L 215.4 52.287 C 215.4 35.528 201.767 21.894 185.009 21.894 C 168.251 21.894 154.616 35.528 154.616 52.287 L 154.616 71.063 C 154.616 77.17 159.585 82.137 165.691 82.137 C 171.584 82.137 176.412 77.559 176.921 71.491 L 176.946 52.287 C 176.946 47.817 180.72 44.042 185.189 44.042 C 189.658 44.042 193.434 47.817 193.434 52.287 L 193.434 109.338 C 193.434 126.097 207.067 139.73 223.826 139.73 C 240.585 139.73 254.218 126.015 254.218 109.158 L 254.218 33.329 C 254.218 28.859 257.993 25.084 262.462 25.084 C 266.931 25.084 270.707 28.859 270.707 33.329 L 270.707 71.243 C 270.707 88.002 284.423 101.636 301.28 101.636 C 318.038 101.636 331.671 88.002 331.671 71.243 L 331.671 54.092 C 331.671 47.883 326.806 43.017 320.598 43.017 Z " class="logoColor1" id="wavePath1" fill="rgb(41,170,225)"/></g></g></svg>